<svg width="1652" height="524" viewBox="0 0 1652 524" fill="none" xmlns="http://www.w3.org/2000/svg">
<path d="M852.946 448.67C853.467 450.269 854.796 450.789 856.125 450.789L892.939 450.7C894.789 450.682 895.579 449.622 895.058 447.772L757.714 73.3487C757.175 71.7684 755.847 71.2476 754.536 71.2476L708.455 71.3553C707.126 71.3553 705.797 71.8941 705.276 73.4924L569.836 448.598C569.297 450.448 570.105 451.508 571.955 451.508L608.769 451.4C610.098 451.4 611.409 450.879 611.93 449.281L729.753 118.192C730.543 116.055 732.663 116.055 733.453 118.174L852.946 448.67Z" fill="#D8D8D5"/>
<path d="M1148.9 281.331C1148.74 218.296 1109.71 183.168 1044.31 183.348C1012.79 183.42 986.07 194.608 967.573 215.584C965.993 217.434 964.413 216.913 964.125 214.794L960.893 191.501C960.623 189.651 959.833 189.113 958.235 189.113L928.047 189.202C926.467 189.202 925.407 190.262 925.407 191.842L926.054 447.953C926.054 449.552 927.113 450.611 928.712 450.593L962.078 450.521C963.676 450.521 964.718 449.462 964.718 447.863L964.341 294.244C964.215 246.85 992.481 216.841 1037.5 216.733C1083.58 216.608 1110.13 241.965 1110.25 287.258L1110.65 447.504C1110.65 449.085 1111.72 450.144 1113.3 450.144L1146.67 450.054C1148.27 450.054 1149.31 448.995 1149.31 447.397L1148.9 281.331Z" fill="#D8D8D5"/>
<path d="M1410.21 446.212L1312.41 312.976C1311.6 311.647 1311.6 310.336 1312.66 309.258L1409.29 191.161C1410.62 189.311 1409.81 187.982 1407.69 187.982L1367.97 188.09C1366.64 188.09 1365.58 188.629 1364.79 189.688L1280.05 292.664C1279.26 293.724 1278.2 294.262 1276.87 294.262L1235.55 294.37C1233.96 294.37 1232.91 293.311 1232.89 291.73L1232.35 72.6863C1232.35 71.106 1231.27 70.0464 1229.69 70.0464L1196.32 70.1362C1194.73 70.1362 1193.67 71.1958 1193.68 72.7941L1194.62 447.29C1194.62 448.87 1195.7 449.93 1197.28 449.93L1230.64 449.84C1232.24 449.84 1233.28 448.78 1233.28 447.182L1232.99 332.515C1232.99 330.916 1234.05 329.857 1235.63 329.857L1276.44 329.749C1277.75 329.749 1278.81 330 1279.61 331.329L1364.39 447.918C1365.19 449.247 1366.24 449.499 1367.57 449.499L1408.63 449.391C1410.74 449.391 1411.54 447.792 1410.21 446.212Z" fill="#D8D8D5"/>
<path d="M1651.06 277.954C1650.9 215.978 1607.91 181.91 1541.18 182.09C1475.75 182.252 1437.18 214.129 1428.04 266.604C1427.77 268.454 1428.58 269.514 1430.43 269.496L1464.06 269.424C1465.66 269.406 1466.7 268.616 1466.97 267.035C1474.3 231.782 1499.67 213.967 1541.25 213.877C1588.41 213.751 1613.35 235.41 1613.46 275.925L1613.49 294.997C1613.51 296.596 1612.45 297.655 1610.85 297.655L1513.39 297.907C1453.27 298.05 1417.07 328.868 1417.19 376.279C1417.32 425.271 1458.17 454.561 1523.59 454.4C1528.23 454.4 1532.84 454.22 1537.46 453.879C1541.8 453.556 1546.15 453.071 1550.46 452.406C1554.52 451.778 1558.54 450.97 1562.51 449.964C1566.26 449.012 1569.98 447.881 1573.61 446.534C1577.24 445.187 1580.47 443.804 1583.77 442.134C1587.08 440.464 1590.04 438.74 1592.98 436.746C1595.93 434.753 1598.64 432.67 1601.26 430.371C1603.88 428.072 1606.31 425.612 1608.59 423.008L1608.84 422.72C1611.01 420.224 1615.14 421.751 1615.14 425.073V445.169C1615.14 447.144 1616.76 448.761 1618.74 448.761H1647.72C1649.7 448.761 1651.31 447.144 1651.31 445.169V368.826L1651.08 277.936L1651.06 277.954ZM1526.68 422.882C1481.39 422.99 1455.93 405.049 1455.86 375.65C1455.78 347.311 1478.25 330.304 1516.39 330.197L1611.46 329.963C1613.06 329.963 1614.12 331.023 1614.12 332.603V338.44C1614.28 392.999 1583.9 422.738 1526.68 422.882Z" fill="#D8D8D5"/>
<path d="M233.256 205.889L261.836 132.492L290.415 205.889L376.536 194.93C317.579 147.631 276.508 78.9637 265.067 0.687012H258.605C247.163 78.9637 206.093 147.631 147.135 194.93L233.24 205.889H233.256Z" fill="#D8D8D5"/>
<path d="M414.458 220.978L387.128 259.333L370.207 246.659L339.496 282.716L298.576 233.485L274.31 273.706L293.696 334.029L272.311 406.144L261.835 439.07L251.36 406.144L229.975 334.029L249.361 273.706L225.095 233.485L184.175 282.716L153.464 246.659L136.543 259.333L109.212 220.978C76.3029 240.097 39.5129 253.254 0.307861 258.983V265.445C133.661 284.931 239.135 390.372 258.621 523.759H265.083C284.569 390.372 390.026 284.931 523.38 265.445V258.983C484.175 253.254 447.385 240.08 414.475 220.978H414.458Z" fill="#D8D8D5"/>
</svg>
