<svg width="524" height="524" viewBox="0 0 524 524" fill="none" xmlns="http://www.w3.org/2000/svg">
<path d="M232.99 205.889L261.569 132.492L290.149 205.889L376.27 194.93C317.312 147.631 276.242 78.9637 264.8 0.687012H258.338C246.897 78.9637 205.826 147.631 146.869 194.93L232.973 205.889H232.99Z" fill="#D8D8D5"/>
<path d="M414.192 220.978L386.862 259.333L369.94 246.659L339.229 282.716L298.309 233.485L274.043 273.706L293.429 334.029L272.045 406.144L261.569 439.07L251.093 406.144L229.709 334.029L249.095 273.706L224.829 233.485L183.908 282.716L153.197 246.659L136.276 259.333L108.946 220.978C76.0363 240.097 39.2463 253.254 0.0412598 258.983V265.445C133.395 284.931 238.869 390.372 258.354 523.759H264.816C284.302 390.372 389.759 284.931 523.113 265.445V258.983C483.908 253.254 447.118 240.08 414.208 220.978H414.192Z" fill="#D8D8D5"/>
</svg>
