<svg width="1082" height="385" viewBox="0 0 1082 385" fill="none" xmlns="http://www.w3.org/2000/svg">
<path d="M283.446 378.738C283.966 380.337 285.295 380.857 286.624 380.857L323.439 380.768C325.288 380.75 326.078 379.69 325.558 377.84L188.214 3.41661C187.675 1.83624 186.346 1.31543 185.035 1.31543L138.954 1.42318C137.625 1.42318 136.297 1.96195 135.776 3.56028L0.335295 378.666C-0.203449 380.516 0.604668 381.576 2.45436 381.576L39.2686 381.468C40.5975 381.468 41.9084 380.947 42.4292 379.349L160.253 48.2598C161.043 46.1227 163.162 46.1227 163.952 48.2418L283.446 378.738Z" fill="#D8D8D5"/>
<path d="M579.396 211.399C579.234 148.364 540.211 113.236 474.808 113.416C443.291 113.488 416.569 124.676 398.073 145.652C396.492 147.502 394.912 146.981 394.625 144.862L391.392 121.569C391.123 119.719 390.333 119.181 388.734 119.181L358.547 119.27C356.966 119.27 355.907 120.33 355.907 121.91L356.553 378.021C356.553 379.619 357.613 380.679 359.211 380.661L392.577 380.589C394.176 380.589 395.217 379.53 395.217 377.931L394.84 224.312C394.714 176.918 422.98 146.909 468.002 146.801C514.082 146.675 540.624 172.033 540.75 217.326L541.145 377.572C541.145 379.153 542.223 380.212 543.803 380.212L577.169 380.122C578.767 380.122 579.809 379.063 579.809 377.464L579.396 211.399Z" fill="#D8D8D5"/>
<path d="M840.706 376.28L742.905 243.043C742.097 241.714 742.097 240.403 743.157 239.326L839.79 121.229C841.119 119.379 840.31 118.05 838.191 118.05L798.468 118.158C797.139 118.158 796.08 118.696 795.289 119.756L710.545 222.732C709.755 223.792 708.695 224.33 707.366 224.33L666.045 224.438C664.464 224.438 663.405 223.378 663.387 221.798L662.848 2.75421C662.848 1.17383 661.77 0.114258 660.19 0.114258L626.824 0.204052C625.226 0.204052 624.166 1.26362 624.184 2.86196L625.118 377.357C625.118 378.938 626.195 379.997 627.776 379.997L661.142 379.908C662.74 379.908 663.782 378.848 663.782 377.25L663.494 262.583C663.494 260.984 664.554 259.925 666.134 259.925L706.935 259.817C708.246 259.817 709.306 260.068 710.114 261.397L794.894 377.986C795.684 379.315 796.744 379.566 798.073 379.566L839.125 379.459C841.244 379.459 842.034 377.86 840.706 376.28Z" fill="#D8D8D5"/>
<path d="M1081.56 208.022C1081.4 146.046 1038.41 111.978 971.674 112.158C906.253 112.32 867.679 144.196 858.538 196.672C858.269 198.522 859.077 199.582 860.926 199.564L894.562 199.492C896.16 199.474 897.202 198.684 897.471 197.103C904.798 161.85 930.173 144.035 971.746 143.945C1018.9 143.819 1043.85 165.478 1043.96 205.993L1043.99 225.065C1044.01 226.663 1042.95 227.723 1041.35 227.723L943.893 227.974C883.769 228.118 847.566 258.935 847.691 306.347C847.817 355.338 888.672 384.629 954.093 384.468C958.727 384.468 963.342 384.288 967.957 383.947C972.303 383.624 976.649 383.139 980.959 382.474C985.017 381.846 989.04 381.038 993.009 380.032C996.762 379.08 1000.48 377.949 1004.11 376.602C1007.73 375.255 1010.97 373.872 1014.27 372.202C1017.58 370.532 1020.54 368.808 1023.48 366.814C1026.43 364.821 1029.14 362.738 1031.76 360.439C1034.38 358.14 1036.81 355.68 1039.09 353.076L1039.34 352.788C1041.51 350.292 1045.64 351.819 1045.64 355.141V375.237C1045.64 377.212 1047.26 378.829 1049.24 378.829H1078.22C1080.2 378.829 1081.81 377.212 1081.81 375.237V298.894L1081.58 208.004L1081.56 208.022ZM957.182 352.95C911.892 353.058 886.427 335.117 886.355 305.718C886.283 277.379 908.749 260.372 946.892 260.264L1041.96 260.031C1043.56 260.031 1044.62 261.091 1044.62 262.671V268.508C1044.78 323.066 1014.4 352.806 957.182 352.95Z" fill="#D8D8D5"/>
</svg>
