<svg width="1082" height="973" viewBox="0 0 1082 973" fill="none" xmlns="http://www.w3.org/2000/svg">
<path d="M283.631 967.028C284.151 968.627 285.48 969.147 286.809 969.147L323.623 969.058C325.473 969.04 326.263 967.98 325.743 966.13L188.399 591.707C187.86 590.126 186.531 589.605 185.22 589.605L139.139 589.713C137.81 589.713 136.481 590.252 135.961 591.85L0.520232 966.956C-0.018513 968.806 0.789604 969.866 2.63929 969.866L39.4535 969.758C40.7824 969.758 42.0934 969.237 42.6142 967.639L160.438 636.55C161.228 634.413 163.347 634.413 164.137 636.532L283.631 967.028Z" fill="#D8D8D5"/>
<path d="M579.581 799.689C579.42 736.654 540.396 701.526 474.993 701.706C443.476 701.778 416.755 712.966 398.258 733.942C396.677 735.792 395.097 735.271 394.81 733.152L391.577 709.859C391.308 708.009 390.518 707.471 388.919 707.471L358.732 707.56C357.151 707.56 356.092 708.62 356.092 710.2L356.738 966.311C356.738 967.91 357.798 968.969 359.396 968.951L392.762 968.879C394.361 968.879 395.402 967.82 395.402 966.221L395.025 812.602C394.9 765.208 423.166 735.199 468.187 735.091C514.267 734.966 540.81 760.323 540.935 805.616L541.33 965.862C541.33 967.443 542.408 968.502 543.988 968.502L577.354 968.412C578.953 968.412 579.994 967.353 579.994 965.754L579.581 799.689Z" fill="#D8D8D5"/>
<path d="M840.89 964.57L743.09 831.333C742.282 830.004 742.282 828.693 743.342 827.616L839.975 709.519C841.304 707.669 840.495 706.34 838.376 706.34L798.653 706.448C797.324 706.448 796.264 706.986 795.474 708.046L710.73 811.022C709.94 812.082 708.88 812.62 707.551 812.62L666.229 812.728C664.649 812.728 663.59 811.669 663.572 810.088L663.033 591.044C663.033 589.464 661.955 588.404 660.375 588.404L627.009 588.494C625.411 588.494 624.351 589.554 624.369 591.152L625.303 965.648C625.303 967.228 626.38 968.287 627.961 968.287L661.327 968.198C662.925 968.198 663.967 967.138 663.967 965.54L663.679 850.873C663.679 849.274 664.739 848.215 666.319 848.215L707.12 848.107C708.431 848.107 709.491 848.358 710.299 849.687L795.079 966.276C795.869 967.605 796.929 967.856 798.258 967.856L839.31 967.749C841.429 967.749 842.219 966.15 840.89 964.57Z" fill="#D8D8D5"/>
<path d="M1081.75 796.312C1081.58 734.336 1038.59 700.268 971.859 700.448C906.438 700.61 867.864 732.487 858.723 784.962C858.454 786.812 859.262 787.872 861.111 787.854L894.747 787.782C896.345 787.764 897.387 786.974 897.656 785.393C904.983 750.14 930.358 732.325 971.931 732.235C1019.09 732.109 1044.03 753.768 1044.14 794.283L1044.18 813.355C1044.19 814.953 1043.14 816.013 1041.54 816.013L944.078 816.264C883.954 816.408 847.751 847.226 847.876 894.637C848.002 943.629 888.857 972.919 954.278 972.758C958.912 972.758 963.527 972.578 968.142 972.237C972.488 971.914 976.834 971.429 981.144 970.764C985.202 970.136 989.225 969.328 993.194 968.322C996.947 967.37 1000.66 966.239 1004.29 964.892C1007.92 963.545 1011.15 962.162 1014.46 960.492C1017.76 958.822 1020.72 957.098 1023.67 955.104C1026.61 953.111 1029.33 951.028 1031.95 948.729C1034.57 946.43 1036.99 943.97 1039.27 941.366L1039.53 941.078C1041.7 938.582 1045.83 940.109 1045.83 943.431V963.527C1045.83 965.502 1047.45 967.119 1049.42 967.119H1078.41C1080.38 967.119 1082 965.502 1082 963.527V887.184L1081.76 796.294L1081.75 796.312ZM957.367 941.24C912.077 941.348 886.612 923.407 886.54 894.008C886.468 865.669 908.934 848.662 947.077 848.554L1042.15 848.321C1043.75 848.321 1044.81 849.381 1044.81 850.961V856.798C1044.97 911.356 1014.58 941.096 957.367 941.24Z" fill="#D8D8D5"/>
<path d="M512.589 205.507L541.168 132.11L569.748 205.507L655.869 194.548C596.911 147.249 555.841 78.5819 544.399 0.305176H537.937C526.496 78.5819 485.425 147.249 426.468 194.548L512.572 205.507H512.589Z" fill="#D8D8D5"/>
<path d="M693.791 220.596L666.461 258.952L649.54 246.278L618.829 282.335L577.908 233.104L553.642 273.325L573.028 333.648L551.644 405.762L541.168 438.688L530.692 405.762L509.308 333.648L528.694 273.325L504.428 233.104L463.508 282.335L432.796 246.278L415.875 258.952L388.545 220.596C355.635 239.716 318.845 252.873 279.64 258.602V265.064C412.994 284.55 518.468 389.99 537.954 523.377H544.416C563.902 389.99 669.359 284.55 802.712 265.064V258.602C763.507 252.873 726.717 239.699 693.808 220.596H693.791Z" fill="#D8D8D5"/>
</svg>
