<svg width="30" height="25" viewBox="0 0 30 25" fill="none" xmlns="http://www.w3.org/2000/svg">
<path fill-rule="evenodd" clip-rule="evenodd" d="M2.50003 24.9998C1.60684 24.9998 0.781525 24.5232 0.334992 23.7498C-0.111664 22.9763 -0.111664 22.0232 0.334992 21.2498C0.781525 20.4763 1.60684 19.9998 2.50003 19.9998H27.5C28.3932 19.9998 29.2185 20.4763 29.6651 21.2498C30.1117 22.0232 30.1117 22.9763 29.6651 23.7498C29.2185 24.5232 28.3932 24.9998 27.5 24.9998H2.50003ZM2.50003 14.9998C1.60684 14.9998 0.781525 14.5232 0.334992 13.7498C-0.111664 12.9762 -0.111664 12.0233 0.334992 11.2498C0.781525 10.4762 1.60684 9.99976 2.50003 9.99976H27.5C28.3932 9.99976 29.2185 10.4762 29.6651 11.2498C30.1117 12.0233 30.1117 12.9762 29.6651 13.7498C29.2185 14.5232 28.3932 14.9998 27.5 14.9998H2.50003ZM2.50003 4.99976C1.60684 4.99976 0.781525 4.52332 0.334992 3.74976C-0.111664 2.9762 -0.111664 2.02332 0.334992 1.24976C0.781525 0.476196 1.60684 -0.000244141 2.50003 -0.000244141H27.5C28.3932 -0.000244141 29.2185 0.476196 29.6651 1.24976C30.1117 2.02332 30.1117 2.9762 29.6651 3.74976C29.2185 4.52332 28.3932 4.99976 27.5 4.99976H2.50003Z" fill="#99B2C6"/>
</svg>
