<svg width="1652" height="524" viewBox="0 0 1652 524" fill="none" xmlns="http://www.w3.org/2000/svg">
<path d="M852.946 448.025C853.467 449.623 854.796 450.144 856.125 450.144L892.939 450.054C894.789 450.036 895.579 448.976 895.058 447.127L757.714 72.703C757.175 71.1226 755.847 70.6018 754.536 70.6018L708.455 70.7096C707.126 70.7096 705.797 71.2483 705.276 72.8467L569.836 447.953C569.297 449.802 570.105 450.862 571.955 450.862L608.769 450.754C610.098 450.754 611.409 450.233 611.93 448.635L729.753 117.546C730.543 115.409 732.663 115.409 733.453 117.528L852.946 448.025Z" fill="#161616"/>
<path d="M1148.9 280.685C1148.74 217.65 1109.71 182.522 1044.31 182.702C1012.79 182.774 986.07 193.962 967.573 214.938C965.993 216.788 964.413 216.267 964.125 214.148L960.893 190.855C960.623 189.005 959.833 188.467 958.235 188.467L928.047 188.556C926.467 188.556 925.407 189.616 925.407 191.196L926.054 447.307C926.054 448.906 927.113 449.965 928.712 449.947L962.078 449.875C963.676 449.875 964.718 448.816 964.718 447.217L964.341 293.598C964.215 246.204 992.481 216.195 1037.5 216.087C1083.58 215.962 1110.13 241.319 1110.25 286.612L1110.65 446.858C1110.65 448.439 1111.72 449.498 1113.3 449.498L1146.67 449.408C1148.27 449.408 1149.31 448.349 1149.31 446.751L1148.9 280.685Z" fill="#161616"/>
<path d="M1410.21 445.566L1312.41 312.33C1311.6 311.001 1311.6 309.69 1312.66 308.612L1409.29 190.515C1410.62 188.665 1409.81 187.336 1407.69 187.336L1367.97 187.444C1366.64 187.444 1365.58 187.983 1364.79 189.042L1280.05 292.018C1279.26 293.078 1278.2 293.617 1276.87 293.617L1235.55 293.724C1233.96 293.724 1232.91 292.665 1232.89 291.084L1232.35 72.0406C1232.35 70.4602 1231.27 69.4006 1229.69 69.4006L1196.32 69.4904C1194.73 69.4904 1193.67 70.55 1193.68 72.1483L1194.62 446.644C1194.62 448.224 1195.7 449.284 1197.28 449.284L1230.64 449.194C1232.24 449.194 1233.28 448.134 1233.28 446.536L1232.99 331.869C1232.99 330.271 1234.05 329.211 1235.63 329.211L1276.44 329.103C1277.75 329.103 1278.81 329.355 1279.61 330.684L1364.39 447.272C1365.19 448.601 1366.24 448.853 1367.57 448.853L1408.63 448.745C1410.74 448.745 1411.54 447.147 1410.21 445.566Z" fill="#161616"/>
<path d="M1651.06 277.309C1650.9 215.333 1607.91 181.265 1541.18 181.444C1475.75 181.606 1437.18 213.483 1428.04 265.959C1427.77 267.808 1428.58 268.868 1430.43 268.85L1464.06 268.778C1465.66 268.76 1466.7 267.97 1466.97 266.39C1474.3 231.136 1499.67 213.321 1541.25 213.231C1588.41 213.106 1613.35 234.764 1613.46 275.279L1613.49 294.351C1613.51 295.95 1612.45 297.009 1610.85 297.009L1513.39 297.261C1453.27 297.404 1417.07 328.222 1417.19 375.633C1417.32 424.625 1458.17 453.916 1523.59 453.754C1528.23 453.754 1532.84 453.574 1537.46 453.233C1541.8 452.91 1546.15 452.425 1550.46 451.761C1554.52 451.132 1558.54 450.324 1562.51 449.318C1566.26 448.366 1569.98 447.235 1573.61 445.888C1577.24 444.541 1580.47 443.158 1583.77 441.488C1587.08 439.818 1590.04 438.094 1592.98 436.101C1595.93 434.107 1598.64 432.024 1601.26 429.725C1603.88 427.426 1606.31 424.966 1608.59 422.362L1608.84 422.075C1611.01 419.578 1615.14 421.105 1615.14 424.427V444.523C1615.14 446.499 1616.76 448.115 1618.74 448.115H1647.72C1649.7 448.115 1651.31 446.499 1651.31 444.523V368.18L1651.08 277.291L1651.06 277.309ZM1526.68 422.236C1481.39 422.344 1455.93 404.403 1455.86 375.005C1455.78 346.666 1478.25 329.659 1516.39 329.551L1611.46 329.317C1613.06 329.317 1614.12 330.377 1614.12 331.957V337.794C1614.28 392.353 1583.9 422.093 1526.68 422.236Z" fill="#161616"/>
<path d="M233.256 205.243L261.836 131.846L290.415 205.243L376.536 194.284C317.579 146.985 276.508 78.318 265.067 0.0412598H258.605C247.163 78.318 206.093 146.985 147.135 194.284L233.24 205.243H233.256Z" fill="#161616"/>
<path d="M414.458 220.332L387.128 258.688L370.207 246.013L339.496 282.071L298.576 232.84L274.31 273.061L293.696 333.384L272.311 405.498L261.835 438.424L251.36 405.498L229.975 333.384L249.361 273.061L225.095 232.84L184.175 282.071L153.464 246.013L136.543 258.688L109.212 220.332C76.3029 239.452 39.5129 252.609 0.307861 258.338V264.8C133.661 284.286 239.135 389.726 258.621 523.113H265.083C284.569 389.726 390.026 284.286 523.38 264.8V258.338C484.175 252.609 447.385 239.435 414.475 220.332H414.458Z" fill="#161616"/>
</svg>
