<svg width="524" height="524" viewBox="0 0 524 524" fill="none" xmlns="http://www.w3.org/2000/svg">
<path d="M232.99 205.934L261.569 132.537L290.149 205.934L376.27 194.975C317.312 147.676 276.242 79.0089 264.8 0.732178H258.338C246.897 79.0089 205.826 147.676 146.869 194.975L232.973 205.934H232.99Z" fill="#161616"/>
<path d="M414.192 221.023L386.862 259.379L369.94 246.704L339.229 282.762L298.309 233.531L274.043 273.751L293.429 334.075L272.045 406.189L261.569 439.115L251.093 406.189L229.709 334.075L249.095 273.751L224.829 233.531L183.908 282.762L153.197 246.704L136.276 259.379L108.946 221.023C76.0363 240.142 39.2463 253.3 0.0412598 259.029V265.491C133.395 284.977 238.869 390.417 258.354 523.804H264.816C284.302 390.417 389.759 284.977 523.113 265.491V259.029C483.908 253.3 447.118 240.126 414.208 221.023H414.192Z" fill="#161616"/>
</svg>
