<svg width="1082" height="386" viewBox="0 0 1082 386" fill="none" xmlns="http://www.w3.org/2000/svg">
<path d="M283.446 379.404C283.966 381.003 285.295 381.523 286.624 381.523L323.439 381.434C325.288 381.416 326.078 380.356 325.558 378.506L188.214 4.08263C187.675 2.50225 186.346 1.98145 185.035 1.98145L138.954 2.0892C137.625 2.0892 136.297 2.62796 135.776 4.2263L0.335295 379.332C-0.203449 381.182 0.604668 382.242 2.45436 382.242L39.2686 382.134C40.5975 382.134 41.9084 381.613 42.4292 380.015L160.253 48.9258C161.043 46.7887 163.162 46.7887 163.952 48.9079L283.446 379.404Z" fill="#161616"/>
<path d="M579.396 212.065C579.234 149.029 540.211 113.902 474.808 114.081C443.291 114.153 416.569 125.342 398.073 146.318C396.492 148.167 394.912 147.647 394.625 145.527L391.392 122.235C391.123 120.385 390.333 119.846 388.734 119.846L358.547 119.936C356.966 119.936 355.907 120.996 355.907 122.576L356.553 378.687C356.553 380.285 357.613 381.345 359.211 381.327L392.577 381.255C394.176 381.255 395.217 380.195 395.217 378.597L394.84 224.977C394.714 177.584 422.98 147.575 468.002 147.467C514.082 147.341 540.624 172.699 540.75 217.991L541.145 378.238C541.145 379.818 542.223 380.878 543.803 380.878L577.169 380.788C578.767 380.788 579.809 379.729 579.809 378.13L579.396 212.065Z" fill="#161616"/>
<path d="M840.706 376.946L742.905 243.709C742.097 242.38 742.097 241.069 743.157 239.992L839.79 121.895C841.119 120.045 840.31 118.716 838.191 118.716L798.468 118.824C797.139 118.824 796.08 119.362 795.289 120.422L710.545 223.398C709.755 224.458 708.695 224.996 707.366 224.996L666.045 225.104C664.464 225.104 663.405 224.044 663.387 222.464L662.848 3.42022C662.848 1.83984 661.77 0.780273 660.19 0.780273L626.824 0.870068C625.226 0.870068 624.166 1.92964 624.184 3.52797L625.118 378.023C625.118 379.604 626.195 380.663 627.776 380.663L661.142 380.574C662.74 380.574 663.782 379.514 663.782 377.916L663.494 263.249C663.494 261.65 664.554 260.591 666.134 260.591L706.935 260.483C708.246 260.483 709.306 260.734 710.114 262.063L794.894 378.652C795.684 379.981 796.744 380.232 798.073 380.232L839.125 380.125C841.244 380.125 842.034 378.526 840.706 376.946Z" fill="#161616"/>
<path d="M1081.56 208.688C1081.4 146.712 1038.41 112.644 971.674 112.824C906.253 112.986 867.679 144.862 858.538 197.338C858.269 199.188 859.077 200.248 860.926 200.23L894.562 200.158C896.16 200.14 897.202 199.35 897.471 197.769C904.798 162.516 930.173 144.701 971.746 144.611C1018.9 144.485 1043.85 166.144 1043.96 206.659L1043.99 225.731C1044.01 227.329 1042.95 228.389 1041.35 228.389L943.893 228.64C883.769 228.784 847.566 259.601 847.691 307.013C847.817 356.004 888.672 385.295 954.093 385.134C958.727 385.134 963.342 384.954 967.957 384.613C972.303 384.29 976.649 383.805 980.959 383.14C985.017 382.512 989.04 381.704 993.009 380.698C996.762 379.746 1000.48 378.615 1004.11 377.268C1007.73 375.921 1010.97 374.538 1014.27 372.868C1017.58 371.198 1020.54 369.474 1023.48 367.48C1026.43 365.487 1029.14 363.404 1031.76 361.105C1034.38 358.806 1036.81 356.346 1039.09 353.742L1039.34 353.454C1041.51 350.958 1045.64 352.485 1045.64 355.807V375.903C1045.64 377.878 1047.26 379.495 1049.24 379.495H1078.22C1080.2 379.495 1081.81 377.878 1081.81 375.903V299.56L1081.58 208.67L1081.56 208.688ZM957.182 353.616C911.892 353.724 886.427 335.783 886.355 306.384C886.283 278.045 908.749 261.038 946.892 260.93L1041.96 260.697C1043.56 260.697 1044.62 261.757 1044.62 263.337V269.174C1044.78 323.732 1014.4 353.472 957.182 353.616Z" fill="#161616"/>
</svg>
