<svg width="1082" height="973" viewBox="0 0 1082 973" fill="none" xmlns="http://www.w3.org/2000/svg">
<path d="M283.587 967.073C284.108 968.672 285.437 969.193 286.766 969.193L323.58 969.103C325.429 969.085 326.22 968.025 325.699 966.175L188.355 591.752C187.816 590.171 186.487 589.651 185.176 589.651L139.096 589.758C137.767 589.758 136.438 590.297 135.917 591.895L0.476531 967.002C-0.0622141 968.851 0.745903 969.911 2.59559 969.911L39.4098 969.803C40.7387 969.803 42.0497 969.282 42.5705 967.684L160.394 636.595C161.184 634.458 163.303 634.458 164.093 636.577L283.587 967.073Z" fill="#161616"/>
<path d="M579.538 799.734C579.376 736.699 540.353 701.571 474.949 701.751C443.433 701.823 416.711 713.011 398.214 733.987C396.634 735.837 395.053 735.316 394.766 733.197L391.534 709.904C391.264 708.054 390.474 707.516 388.876 707.516L358.688 707.606C357.108 707.606 356.048 708.665 356.048 710.245L356.695 966.356C356.695 967.955 357.754 969.014 359.353 968.996L392.719 968.924C394.317 968.924 395.359 967.865 395.359 966.267L394.982 812.647C394.856 765.253 423.122 735.244 468.143 735.136C514.224 735.011 540.766 760.369 540.892 805.661L541.287 965.907C541.287 967.488 542.364 968.547 543.944 968.547L577.311 968.458C578.909 968.458 579.951 967.398 579.951 965.8L579.538 799.734Z" fill="#161616"/>
<path d="M840.847 964.615L743.047 831.379C742.239 830.05 742.239 828.739 743.298 827.661L839.931 709.564C841.26 707.714 840.452 706.385 838.333 706.385L798.609 706.493C797.28 706.493 796.221 707.032 795.431 708.091L710.686 811.067C709.896 812.127 708.836 812.665 707.507 812.665L666.186 812.773C664.605 812.773 663.546 811.714 663.528 810.133L662.989 591.089C662.989 589.509 661.912 588.449 660.331 588.449L626.965 588.539C625.367 588.539 624.307 589.599 624.325 591.197L625.259 965.693C625.259 967.273 626.337 968.333 627.917 968.333L661.283 968.243C662.881 968.243 663.923 967.183 663.923 965.585L663.636 850.918C663.636 849.319 664.695 848.26 666.276 848.26L707.076 848.152C708.387 848.152 709.447 848.404 710.255 849.733L795.036 966.321C795.826 967.65 796.885 967.902 798.214 967.902L839.267 967.794C841.386 967.794 842.176 966.196 840.847 964.615Z" fill="#161616"/>
<path d="M1081.7 796.358C1081.54 734.382 1038.55 700.314 971.816 700.493C906.394 700.655 867.82 732.532 858.679 785.008C858.41 786.857 859.218 787.917 861.068 787.899L894.703 787.827C896.302 787.809 897.343 787.019 897.613 785.439C904.94 750.185 930.314 732.37 971.888 732.281C1019.05 732.155 1043.99 753.813 1044.1 794.328L1044.13 813.401C1044.15 814.999 1043.09 816.058 1041.49 816.058L944.034 816.31C883.911 816.454 847.707 847.271 847.833 894.682C847.958 943.674 888.813 972.965 954.235 972.803C958.868 972.803 963.483 972.624 968.098 972.282C972.444 971.959 976.79 971.474 981.1 970.81C985.159 970.181 989.181 969.373 993.15 968.367C996.903 967.415 1000.62 966.284 1004.25 964.937C1007.88 963.59 1011.11 962.207 1014.41 960.537C1017.72 958.867 1020.68 957.143 1023.63 955.15C1026.57 953.156 1029.28 951.073 1031.9 948.774C1034.53 946.475 1036.95 944.015 1039.23 941.411L1039.48 941.124C1041.65 938.627 1045.79 940.154 1045.79 943.476V963.572C1045.79 965.548 1047.4 967.164 1049.38 967.164H1078.36C1080.34 967.164 1081.95 965.548 1081.95 963.572V887.229L1081.72 796.34L1081.7 796.358ZM957.323 941.285C912.033 941.393 886.568 923.452 886.497 894.054C886.425 865.715 908.89 848.708 947.033 848.6L1042.1 848.366C1043.7 848.366 1044.76 849.426 1044.76 851.006V856.843C1044.92 911.402 1014.54 941.142 957.323 941.285Z" fill="#161616"/>
<path d="M512.545 205.552L541.125 132.155L569.704 205.552L655.825 194.593C596.868 147.294 555.797 78.6271 544.356 0.350342H537.894C526.452 78.6271 485.382 147.294 426.424 194.593L512.529 205.552H512.545Z" fill="#161616"/>
<path d="M693.747 220.641L666.417 258.997L649.496 246.323L618.785 282.38L577.864 233.149L553.599 273.37L572.985 333.693L551.6 405.807L541.124 438.733L530.649 405.807L509.264 333.693L528.65 273.37L504.384 233.149L463.464 282.38L432.753 246.323L415.832 258.997L388.501 220.641C355.592 239.761 318.802 252.918 279.597 258.647V265.109C412.95 284.595 518.424 390.035 537.91 523.422H544.372C563.858 390.035 669.315 284.595 802.669 265.109V258.647C763.464 252.918 726.673 239.744 693.764 220.641H693.747Z" fill="#161616"/>
</svg>
