<svg width="1652" height="524" viewBox="0 0 1652 524" fill="none" xmlns="http://www.w3.org/2000/svg">
<path d="M853.311 448.67C853.832 450.269 855.161 450.789 856.49 450.789L893.304 450.7C895.154 450.682 895.944 449.622 895.423 447.772L758.079 73.3487C757.54 71.7684 756.211 71.2476 754.9 71.2476L708.82 71.3553C707.491 71.3553 706.162 71.8941 705.641 73.4924L570.201 448.598C569.662 450.448 570.47 451.508 572.32 451.508L609.134 451.4C610.463 451.4 611.774 450.879 612.295 449.281L730.118 118.192C730.908 116.055 733.027 116.055 733.818 118.174L853.311 448.67Z" fill="white"/>
<path d="M1149.26 281.331C1149.1 218.296 1110.08 183.168 1044.67 183.348C1013.16 183.42 986.435 194.608 967.938 215.584C966.358 217.434 964.778 216.913 964.49 214.794L961.258 191.501C960.988 189.651 960.198 189.113 958.6 189.113L928.412 189.202C926.832 189.202 925.772 190.262 925.772 191.842L926.419 447.953C926.419 449.552 927.478 450.611 929.077 450.593L962.443 450.521C964.041 450.521 965.083 449.462 965.083 447.863L964.706 294.244C964.58 246.85 992.846 216.841 1037.87 216.733C1083.95 216.608 1110.49 241.965 1110.62 287.258L1111.01 447.504C1111.01 449.085 1112.09 450.144 1113.67 450.144L1147.03 450.054C1148.63 450.054 1149.67 448.995 1149.67 447.397L1149.26 281.331Z" fill="white"/>
<path d="M1410.57 446.212L1312.77 312.976C1311.96 311.647 1311.96 310.336 1313.02 309.258L1409.66 191.161C1410.98 189.311 1410.18 187.982 1408.06 187.982L1368.33 188.09C1367 188.09 1365.95 188.629 1365.15 189.688L1280.41 292.664C1279.62 293.724 1278.56 294.262 1277.23 294.262L1235.91 294.37C1234.33 294.37 1233.27 293.311 1233.25 291.73L1232.71 72.6863C1232.71 71.106 1231.64 70.0464 1230.06 70.0464L1196.69 70.1362C1195.09 70.1362 1194.03 71.1958 1194.05 72.7941L1194.98 447.29C1194.98 448.87 1196.06 449.93 1197.64 449.93L1231.01 449.84C1232.61 449.84 1233.65 448.78 1233.65 447.182L1233.36 332.515C1233.36 330.916 1234.42 329.857 1236 329.857L1276.8 329.749C1278.11 329.749 1279.17 330 1279.98 331.329L1364.76 447.918C1365.55 449.247 1366.61 449.499 1367.94 449.499L1408.99 449.391C1411.11 449.391 1411.9 447.792 1410.57 446.212Z" fill="white"/>
<path d="M1651.43 277.954C1651.26 215.978 1608.27 181.91 1541.54 182.09C1476.12 182.252 1437.54 214.129 1428.4 266.604C1428.13 268.454 1428.94 269.514 1430.79 269.496L1464.43 269.424C1466.03 269.406 1467.07 268.616 1467.34 267.035C1474.66 231.782 1500.04 213.967 1541.61 213.877C1588.77 213.751 1613.71 235.41 1613.82 275.925L1613.86 294.997C1613.88 296.596 1612.82 297.655 1611.22 297.655L1513.76 297.907C1453.63 298.05 1417.43 328.868 1417.56 376.279C1417.68 425.271 1458.54 454.561 1523.96 454.4C1528.59 454.4 1533.21 454.22 1537.82 453.879C1542.17 453.556 1546.51 453.071 1550.82 452.406C1554.88 451.778 1558.91 450.97 1562.87 449.964C1566.63 449.012 1570.34 447.881 1573.97 446.534C1577.6 445.187 1580.83 443.804 1584.14 442.134C1587.44 440.464 1590.4 438.74 1593.35 436.746C1596.29 434.753 1599.01 432.67 1601.63 430.371C1604.25 428.072 1606.67 425.612 1608.96 423.008L1609.21 422.72C1611.38 420.224 1615.51 421.751 1615.51 425.073V445.169C1615.51 447.144 1617.13 448.761 1619.1 448.761H1648.09C1650.06 448.761 1651.68 447.144 1651.68 445.169V368.826L1651.44 277.936L1651.43 277.954ZM1527.05 422.882C1481.76 422.99 1456.29 405.049 1456.22 375.65C1456.15 347.311 1478.61 330.304 1516.76 330.197L1611.83 329.963C1613.43 329.963 1614.49 331.023 1614.49 332.603V338.44C1614.65 392.999 1584.26 422.738 1527.05 422.882Z" fill="white"/>
<path d="M233.621 205.889L262.201 132.492L290.78 205.889L376.901 194.93C317.944 147.631 276.873 78.9637 265.432 0.687012H258.97C247.528 78.9637 206.458 147.631 147.5 194.93L233.605 205.889H233.621Z" fill="white"/>
<path d="M414.823 220.978L387.493 259.333L370.572 246.659L339.861 282.716L298.941 233.485L274.675 273.706L294.061 334.029L272.676 406.144L262.2 439.07L251.725 406.144L230.34 334.029L249.726 273.706L225.46 233.485L184.54 282.716L153.829 246.659L136.908 259.333L109.577 220.978C76.6679 240.097 39.8778 253.254 0.672852 258.983V265.445C134.026 284.931 239.5 390.372 258.986 523.759H265.448C284.934 390.372 390.391 284.931 523.745 265.445V258.983C484.54 253.254 447.75 240.08 414.84 220.978H414.823Z" fill="white"/>
</svg>
