<svg width="524" height="524" viewBox="0 0 524 524" fill="none" xmlns="http://www.w3.org/2000/svg">
<path d="M233.355 205.889L261.934 132.492L290.514 205.889L376.635 194.93C317.677 147.631 276.607 78.9637 265.165 0.687012H258.703C247.262 78.9637 206.191 147.631 147.234 194.93L233.338 205.889H233.355Z" fill="white"/>
<path d="M414.557 220.978L387.227 259.333L370.305 246.659L339.594 282.716L298.674 233.485L274.408 273.706L293.794 334.029L272.41 406.144L261.934 439.07L251.458 406.144L230.074 334.029L249.46 273.706L225.194 233.485L184.273 282.716L153.562 246.659L136.641 259.333L109.311 220.978C76.4013 240.097 39.6112 253.254 0.40625 258.983V265.445C133.76 284.931 239.234 390.372 258.719 523.759H265.181C284.667 390.372 390.124 284.931 523.478 265.445V258.983C484.273 253.254 447.483 240.08 414.573 220.978H414.557Z" fill="white"/>
</svg>
