<svg width="1082" height="385" viewBox="0 0 1082 385" fill="none" xmlns="http://www.w3.org/2000/svg">
<path d="M283.495 378.738C284.016 380.337 285.344 380.857 286.673 380.857L323.488 380.768C325.337 380.75 326.127 379.69 325.607 377.84L188.263 3.41661C187.724 1.83624 186.395 1.31543 185.084 1.31543L139.003 1.42318C137.675 1.42318 136.346 1.96195 135.825 3.56028L0.384368 378.666C-0.154377 380.516 0.65374 381.576 2.50343 381.576L39.3177 381.468C40.6466 381.468 41.9575 380.947 42.4783 379.349L160.302 48.2598C161.092 46.1227 163.211 46.1227 164.001 48.2418L283.495 378.738Z" fill="white"/>
<path d="M579.445 211.399C579.284 148.364 540.261 113.236 474.857 113.416C443.34 113.488 416.619 124.676 398.122 145.652C396.542 147.502 394.961 146.981 394.674 144.862L391.441 121.569C391.172 119.719 390.382 119.181 388.784 119.181L358.596 119.27C357.016 119.27 355.956 120.33 355.956 121.91L356.603 378.021C356.603 379.619 357.662 380.679 359.26 380.661L392.627 380.589C394.225 380.589 395.266 379.53 395.266 377.931L394.889 224.312C394.764 176.918 423.03 146.909 468.051 146.801C514.132 146.675 540.674 172.033 540.799 217.326L541.194 377.572C541.194 379.153 542.272 380.212 543.852 380.212L577.219 380.122C578.817 380.122 579.858 379.063 579.858 377.464L579.445 211.399Z" fill="white"/>
<path d="M840.754 376.28L742.954 243.043C742.146 241.714 742.146 240.403 743.205 239.326L839.838 121.229C841.167 119.379 840.359 118.05 838.24 118.05L798.517 118.158C797.188 118.158 796.128 118.696 795.338 119.756L710.593 222.732C709.803 223.792 708.744 224.33 707.415 224.33L666.093 224.438C664.513 224.438 663.453 223.378 663.435 221.798L662.897 2.75421C662.897 1.17383 661.819 0.114258 660.239 0.114258L626.872 0.204052C625.274 0.204052 624.215 1.26362 624.233 2.86196L625.166 377.357C625.166 378.938 626.244 379.997 627.824 379.997L661.191 379.908C662.789 379.908 663.83 378.848 663.83 377.25L663.543 262.583C663.543 260.984 664.603 259.925 666.183 259.925L706.984 259.817C708.295 259.817 709.354 260.068 710.162 261.397L794.943 377.986C795.733 379.315 796.793 379.566 798.121 379.566L839.174 379.459C841.293 379.459 842.083 377.86 840.754 376.28Z" fill="white"/>
<path d="M1081.61 208.022C1081.45 146.046 1038.46 111.978 971.724 112.158C906.302 112.32 867.728 144.196 858.587 196.672C858.318 198.522 859.126 199.582 860.976 199.564L894.611 199.492C896.21 199.474 897.251 198.684 897.521 197.103C904.848 161.85 930.222 144.035 971.796 143.945C1018.95 143.819 1043.9 165.478 1044.01 205.993L1044.04 225.065C1044.06 226.663 1043 227.723 1041.4 227.723L943.942 227.974C883.819 228.118 847.615 258.935 847.741 306.347C847.866 355.338 888.721 384.629 954.143 384.468C958.776 384.468 963.391 384.288 968.006 383.947C972.352 383.624 976.698 383.139 981.008 382.474C985.067 381.846 989.089 381.038 993.058 380.032C996.811 379.08 1000.53 377.949 1004.16 376.602C1007.78 375.255 1011.02 373.872 1014.32 372.202C1017.62 370.532 1020.59 368.808 1023.53 366.814C1026.48 364.821 1029.19 362.738 1031.81 360.439C1034.43 358.14 1036.86 355.68 1039.14 353.076L1039.39 352.788C1041.56 350.292 1045.69 351.819 1045.69 355.141V375.237C1045.69 377.212 1047.31 378.829 1049.28 378.829H1078.27C1080.24 378.829 1081.86 377.212 1081.86 375.237V298.894L1081.63 208.004L1081.61 208.022ZM957.231 352.95C911.941 353.058 886.476 335.117 886.404 305.718C886.333 277.379 908.798 260.372 946.941 260.264L1042.01 260.031C1043.61 260.031 1044.67 261.091 1044.67 262.671V268.508C1044.83 323.066 1014.45 352.806 957.231 352.95Z" fill="white"/>
</svg>
