<svg width="1083" height="973" viewBox="0 0 1083 973" fill="none" xmlns="http://www.w3.org/2000/svg">
<path d="M283.996 967.028C284.517 968.627 285.845 969.147 287.174 969.147L323.989 969.058C325.838 969.04 326.628 967.98 326.108 966.13L188.764 591.707C188.225 590.126 186.896 589.605 185.585 589.605L139.504 589.713C138.175 589.713 136.847 590.252 136.326 591.85L0.885344 966.956C0.346599 968.806 1.15472 969.866 3.00441 969.866L39.8186 969.758C41.1475 969.758 42.4585 969.237 42.9793 967.639L160.803 636.55C161.593 634.413 163.712 634.413 164.502 636.532L283.996 967.028Z" fill="white"/>
<path d="M579.946 799.689C579.785 736.654 540.762 701.526 475.358 701.706C443.841 701.778 417.12 712.966 398.623 733.942C397.042 735.792 395.462 735.271 395.175 733.152L391.942 709.859C391.673 708.009 390.883 707.471 389.285 707.471L359.097 707.56C357.517 707.56 356.457 708.62 356.457 710.2L357.104 966.311C357.104 967.91 358.163 968.969 359.761 968.951L393.128 968.879C394.726 968.879 395.767 967.82 395.767 966.221L395.39 812.602C395.265 765.208 423.531 735.199 468.552 735.091C514.633 734.966 541.175 760.323 541.3 805.616L541.695 965.862C541.695 967.443 542.773 968.502 544.353 968.502L577.72 968.412C579.318 968.412 580.359 967.353 580.359 965.754L579.946 799.689Z" fill="white"/>
<path d="M841.256 964.57L743.455 831.333C742.647 830.004 742.647 828.693 743.707 827.616L840.34 709.519C841.669 707.669 840.861 706.34 838.741 706.34L799.018 706.448C797.689 706.448 796.63 706.986 795.839 708.046L711.095 811.022C710.305 812.082 709.245 812.62 707.916 812.62L666.595 812.728C665.014 812.728 663.955 811.669 663.937 810.088L663.398 591.044C663.398 589.464 662.321 588.404 660.74 588.404L627.374 588.494C625.776 588.494 624.716 589.554 624.734 591.152L625.668 965.648C625.668 967.228 626.745 968.287 628.326 968.287L661.692 968.198C663.29 968.198 664.332 967.138 664.332 965.54L664.044 850.873C664.044 849.274 665.104 848.215 666.684 848.215L707.485 848.107C708.796 848.107 709.856 848.358 710.664 849.687L795.444 966.276C796.235 967.605 797.294 967.856 798.623 967.856L839.675 967.749C841.794 967.749 842.585 966.15 841.256 964.57Z" fill="white"/>
<path d="M1082.11 796.312C1081.95 734.336 1038.96 700.268 972.225 700.448C906.803 700.61 868.229 732.487 859.088 784.962C858.819 786.812 859.627 787.872 861.477 787.854L895.112 787.782C896.711 787.764 897.752 786.974 898.022 785.393C905.348 750.14 930.723 732.325 972.297 732.235C1019.45 732.109 1044.4 753.768 1044.51 794.283L1044.54 813.355C1044.56 814.953 1043.5 816.013 1041.9 816.013L944.443 816.264C884.319 816.408 848.116 847.226 848.242 894.637C848.367 943.629 889.222 972.919 954.644 972.758C959.277 972.758 963.892 972.578 968.507 972.237C972.853 971.914 977.199 971.429 981.509 970.764C985.568 970.136 989.59 969.328 993.559 968.322C997.312 967.37 1001.03 966.239 1004.66 964.892C1008.28 963.545 1011.52 962.162 1014.82 960.492C1018.13 958.822 1021.09 957.098 1024.03 955.104C1026.98 953.111 1029.69 951.028 1032.31 948.729C1034.93 946.43 1037.36 943.97 1039.64 941.366L1039.89 941.078C1042.06 938.582 1046.19 940.109 1046.19 943.431V963.527C1046.19 965.502 1047.81 967.119 1049.79 967.119H1078.77C1080.75 967.119 1082.36 965.502 1082.36 963.527V887.184L1082.13 796.294L1082.11 796.312ZM957.732 941.24C912.442 941.348 886.977 923.407 886.905 894.008C886.834 865.669 909.299 848.662 947.442 848.554L1042.51 848.321C1044.11 848.321 1045.17 849.381 1045.17 850.961V856.798C1045.33 911.356 1014.95 941.096 957.732 941.24Z" fill="white"/>
<path d="M512.954 205.507L541.533 132.11L570.113 205.507L656.234 194.548C597.276 147.249 556.206 78.5819 544.764 0.305176H538.302C526.861 78.5819 485.79 147.249 426.833 194.548L512.937 205.507H512.954Z" fill="white"/>
<path d="M694.156 220.596L666.826 258.952L649.905 246.278L619.193 282.335L578.273 233.104L554.007 273.325L573.393 333.648L552.009 405.762L541.533 438.688L531.057 405.762L509.673 333.648L529.059 273.325L504.793 233.104L463.872 282.335L433.161 246.278L416.24 258.952L388.91 220.596C356 239.716 319.21 252.873 280.005 258.602V265.064C413.359 284.55 518.833 389.99 538.319 523.377H544.781C564.267 389.99 669.724 284.55 803.077 265.064V258.602C763.872 252.873 727.082 239.699 694.173 220.596H694.156Z" fill="white"/>
</svg>
