<svg width="1652" height="524" viewBox="0 0 1652 524" fill="none" xmlns="http://www.w3.org/2000/svg">
<path d="M853.311 448.715C853.832 450.314 855.161 450.835 856.49 450.835L893.304 450.745C895.154 450.727 895.944 449.667 895.423 447.818L758.079 73.3939C757.54 71.8135 756.211 71.2927 754.9 71.2927L708.82 71.4005C707.491 71.4005 706.162 71.9392 705.641 73.5376L570.201 448.644C569.662 450.493 570.47 451.553 572.32 451.553L609.134 451.445C610.463 451.445 611.774 450.924 612.295 449.326L730.118 118.237C730.908 116.1 733.027 116.1 733.818 118.219L853.311 448.715Z" fill="black"/>
<path d="M1149.26 281.376C1149.1 218.341 1110.08 183.213 1044.67 183.393C1013.16 183.465 986.435 194.653 967.938 215.629C966.358 217.479 964.778 216.958 964.49 214.839L961.258 191.546C960.988 189.696 960.198 189.158 958.6 189.158L928.412 189.247C926.832 189.247 925.772 190.307 925.772 191.887L926.419 447.998C926.419 449.597 927.478 450.656 929.077 450.638L962.443 450.566C964.041 450.566 965.083 449.507 965.083 447.908L964.706 294.289C964.58 246.895 992.846 216.886 1037.87 216.778C1083.95 216.653 1110.49 242.01 1110.62 287.303L1111.01 447.549C1111.01 449.13 1112.09 450.189 1113.67 450.189L1147.03 450.099C1148.63 450.099 1149.67 449.04 1149.67 447.441L1149.26 281.376Z" fill="black"/>
<path d="M1410.57 446.257L1312.77 313.021C1311.96 311.692 1311.96 310.381 1313.02 309.303L1409.66 191.206C1410.98 189.356 1410.18 188.027 1408.06 188.027L1368.33 188.135C1367 188.135 1365.95 188.674 1365.15 189.733L1280.41 292.709C1279.62 293.769 1278.56 294.308 1277.23 294.308L1235.91 294.415C1234.33 294.415 1233.27 293.356 1233.25 291.775L1232.71 72.7315C1232.71 71.1511 1231.64 70.0916 1230.06 70.0916L1196.69 70.1813C1195.09 70.1813 1194.03 71.2409 1194.05 72.8393L1194.98 447.335C1194.98 448.915 1196.06 449.975 1197.64 449.975L1231.01 449.885C1232.61 449.885 1233.65 448.825 1233.65 447.227L1233.36 332.56C1233.36 330.962 1234.42 329.902 1236 329.902L1276.8 329.794C1278.11 329.794 1279.17 330.046 1279.98 331.375L1364.76 447.963C1365.55 449.292 1366.61 449.544 1367.94 449.544L1408.99 449.436C1411.11 449.436 1411.9 447.838 1410.57 446.257Z" fill="black"/>
<path d="M1651.43 277.999C1651.26 216.024 1608.27 181.956 1541.54 182.135C1476.12 182.297 1437.54 214.174 1428.4 266.649C1428.13 268.499 1428.94 269.559 1430.79 269.541L1464.43 269.469C1466.03 269.451 1467.07 268.661 1467.34 267.08C1474.66 231.827 1500.04 214.012 1541.61 213.922C1588.77 213.797 1613.71 235.455 1613.82 275.97L1613.86 295.042C1613.88 296.641 1612.82 297.7 1611.22 297.7L1513.76 297.952C1453.63 298.095 1417.43 328.913 1417.56 376.324C1417.68 425.316 1458.54 454.607 1523.96 454.445C1528.59 454.445 1533.21 454.265 1537.82 453.924C1542.17 453.601 1546.51 453.116 1550.82 452.452C1554.88 451.823 1558.91 451.015 1562.87 450.009C1566.63 449.057 1570.34 447.926 1573.97 446.579C1577.6 445.232 1580.83 443.849 1584.14 442.179C1587.44 440.509 1590.4 438.785 1593.35 436.791C1596.29 434.798 1599.01 432.715 1601.63 430.416C1604.25 428.117 1606.67 425.657 1608.96 423.053L1609.21 422.766C1611.38 420.269 1615.51 421.796 1615.51 425.118V445.214C1615.51 447.19 1617.13 448.806 1619.1 448.806H1648.09C1650.06 448.806 1651.68 447.19 1651.68 445.214V368.871L1651.44 277.982L1651.43 277.999ZM1527.05 422.927C1481.76 423.035 1456.29 405.094 1456.22 375.696C1456.15 347.356 1478.61 330.349 1516.76 330.242L1611.83 330.008C1613.43 330.008 1614.49 331.068 1614.49 332.648V338.485C1614.65 393.044 1584.26 422.784 1527.05 422.927Z" fill="black"/>
<path d="M233.621 205.934L262.201 132.537L290.78 205.934L376.901 194.975C317.944 147.676 276.873 79.0089 265.432 0.732178H258.97C247.528 79.0089 206.458 147.676 147.5 194.975L233.605 205.934H233.621Z" fill="black"/>
<path d="M414.823 221.023L387.493 259.379L370.572 246.704L339.861 282.762L298.941 233.531L274.675 273.751L294.061 334.075L272.676 406.189L262.2 439.115L251.725 406.189L230.34 334.075L249.726 273.751L225.46 233.531L184.54 282.762L153.829 246.704L136.908 259.379L109.577 221.023C76.6679 240.142 39.8778 253.3 0.672852 259.029V265.491C134.026 284.977 239.5 390.417 258.986 523.804H265.448C284.934 390.417 390.391 284.977 523.745 265.491V259.029C484.54 253.3 447.75 240.126 414.84 221.023H414.823Z" fill="black"/>
</svg>
