<svg width="524" height="524" viewBox="0 0 524 524" fill="none" xmlns="http://www.w3.org/2000/svg">
<path d="M233.355 205.934L261.934 132.537L290.514 205.934L376.635 194.975C317.677 147.676 276.607 79.0089 265.165 0.732178H258.703C247.262 79.0089 206.191 147.676 147.234 194.975L233.338 205.934H233.355Z" fill="black"/>
<path d="M414.557 221.023L387.227 259.379L370.305 246.704L339.594 282.762L298.674 233.531L274.408 273.751L293.794 334.075L272.41 406.189L261.934 439.115L251.458 406.189L230.074 334.075L249.46 273.751L225.194 233.531L184.273 282.762L153.562 246.704L136.641 259.379L109.311 221.023C76.4013 240.142 39.6112 253.3 0.40625 259.029V265.491C133.76 284.977 239.234 390.417 258.719 523.804H265.181C284.667 390.417 390.124 284.977 523.478 265.491V259.029C484.273 253.3 447.483 240.126 414.573 221.023H414.557Z" fill="black"/>
</svg>
