<svg width="1082" height="386" viewBox="0 0 1082 386" fill="none" xmlns="http://www.w3.org/2000/svg">
<path d="M283.495 379.404C284.016 381.003 285.344 381.523 286.673 381.523L323.488 381.434C325.337 381.416 326.127 380.356 325.607 378.506L188.263 4.08263C187.724 2.50225 186.395 1.98145 185.084 1.98145L139.003 2.0892C137.675 2.0892 136.346 2.62796 135.825 4.2263L0.384368 379.332C-0.154377 381.182 0.65374 382.242 2.50343 382.242L39.3177 382.134C40.6466 382.134 41.9575 381.613 42.4783 380.015L160.302 48.9258C161.092 46.7887 163.211 46.7887 164.001 48.9079L283.495 379.404Z" fill="black"/>
<path d="M579.445 212.065C579.284 149.029 540.261 113.902 474.857 114.081C443.34 114.153 416.619 125.342 398.122 146.318C396.542 148.167 394.961 147.647 394.674 145.527L391.441 122.235C391.172 120.385 390.382 119.846 388.784 119.846L358.596 119.936C357.016 119.936 355.956 120.996 355.956 122.576L356.603 378.687C356.603 380.285 357.662 381.345 359.26 381.327L392.627 381.255C394.225 381.255 395.266 380.195 395.266 378.597L394.889 224.977C394.764 177.584 423.03 147.575 468.051 147.467C514.132 147.341 540.674 172.699 540.799 217.991L541.194 378.238C541.194 379.818 542.272 380.878 543.852 380.878L577.219 380.788C578.817 380.788 579.858 379.729 579.858 378.13L579.445 212.065Z" fill="black"/>
<path d="M840.754 376.946L742.954 243.709C742.146 242.38 742.146 241.069 743.205 239.992L839.838 121.895C841.167 120.045 840.359 118.716 838.24 118.716L798.517 118.824C797.188 118.824 796.128 119.362 795.338 120.422L710.593 223.398C709.803 224.458 708.744 224.996 707.415 224.996L666.093 225.104C664.513 225.104 663.453 224.044 663.435 222.464L662.897 3.42022C662.897 1.83984 661.819 0.780273 660.239 0.780273L626.872 0.870068C625.274 0.870068 624.215 1.92964 624.233 3.52797L625.166 378.023C625.166 379.604 626.244 380.663 627.824 380.663L661.191 380.574C662.789 380.574 663.83 379.514 663.83 377.916L663.543 263.249C663.543 261.65 664.603 260.591 666.183 260.591L706.984 260.483C708.295 260.483 709.354 260.734 710.162 262.063L794.943 378.652C795.733 379.981 796.793 380.232 798.121 380.232L839.174 380.125C841.293 380.125 842.083 378.526 840.754 376.946Z" fill="black"/>
<path d="M1081.61 208.688C1081.45 146.712 1038.46 112.644 971.724 112.824C906.302 112.986 867.728 144.862 858.587 197.338C858.318 199.188 859.126 200.248 860.976 200.23L894.611 200.158C896.21 200.14 897.251 199.35 897.521 197.769C904.848 162.516 930.222 144.701 971.796 144.611C1018.95 144.485 1043.9 166.144 1044.01 206.659L1044.04 225.731C1044.06 227.329 1043 228.389 1041.4 228.389L943.942 228.64C883.819 228.784 847.615 259.601 847.741 307.013C847.866 356.004 888.721 385.295 954.143 385.134C958.776 385.134 963.391 384.954 968.006 384.613C972.352 384.29 976.698 383.805 981.008 383.14C985.067 382.512 989.089 381.704 993.058 380.698C996.811 379.746 1000.53 378.615 1004.16 377.268C1007.78 375.921 1011.02 374.538 1014.32 372.868C1017.62 371.198 1020.59 369.474 1023.53 367.48C1026.48 365.487 1029.19 363.404 1031.81 361.105C1034.43 358.806 1036.86 356.346 1039.14 353.742L1039.39 353.454C1041.56 350.958 1045.69 352.485 1045.69 355.807V375.903C1045.69 377.878 1047.31 379.495 1049.28 379.495H1078.27C1080.24 379.495 1081.86 377.878 1081.86 375.903V299.56L1081.63 208.67L1081.61 208.688ZM957.231 353.616C911.941 353.724 886.476 335.783 886.404 306.384C886.333 278.045 908.798 261.038 946.941 260.93L1042.01 260.697C1043.61 260.697 1044.67 261.757 1044.67 263.337V269.174C1044.83 323.732 1014.45 353.472 957.231 353.616Z" fill="black"/>
</svg>
