<svg width="1083" height="973" viewBox="0 0 1083 973" fill="none" xmlns="http://www.w3.org/2000/svg">
<path d="M283.996 967.073C284.517 968.672 285.845 969.193 287.174 969.193L323.989 969.103C325.838 969.085 326.628 968.025 326.108 966.175L188.764 591.752C188.225 590.171 186.896 589.651 185.585 589.651L139.504 589.758C138.175 589.758 136.847 590.297 136.326 591.895L0.885344 967.002C0.346599 968.851 1.15472 969.911 3.00441 969.911L39.8186 969.803C41.1475 969.803 42.4585 969.282 42.9793 967.684L160.803 636.595C161.593 634.458 163.712 634.458 164.502 636.577L283.996 967.073Z" fill="black"/>
<path d="M579.946 799.734C579.785 736.699 540.762 701.571 475.358 701.751C443.841 701.823 417.12 713.011 398.623 733.987C397.042 735.837 395.462 735.316 395.175 733.197L391.942 709.904C391.673 708.054 390.883 707.516 389.285 707.516L359.097 707.606C357.517 707.606 356.457 708.665 356.457 710.245L357.104 966.356C357.104 967.955 358.163 969.014 359.761 968.996L393.128 968.924C394.726 968.924 395.767 967.865 395.767 966.267L395.39 812.647C395.265 765.253 423.531 735.244 468.552 735.136C514.633 735.011 541.175 760.369 541.3 805.661L541.695 965.907C541.695 967.488 542.773 968.547 544.353 968.547L577.72 968.458C579.318 968.458 580.359 967.398 580.359 965.8L579.946 799.734Z" fill="black"/>
<path d="M841.256 964.615L743.455 831.379C742.647 830.05 742.647 828.739 743.707 827.661L840.34 709.564C841.669 707.714 840.861 706.385 838.741 706.385L799.018 706.493C797.689 706.493 796.63 707.032 795.839 708.091L711.095 811.067C710.305 812.127 709.245 812.665 707.916 812.665L666.595 812.773C665.014 812.773 663.955 811.714 663.937 810.133L663.398 591.089C663.398 589.509 662.321 588.449 660.74 588.449L627.374 588.539C625.776 588.539 624.716 589.599 624.734 591.197L625.668 965.693C625.668 967.273 626.745 968.333 628.326 968.333L661.692 968.243C663.29 968.243 664.332 967.183 664.332 965.585L664.044 850.918C664.044 849.319 665.104 848.26 666.684 848.26L707.485 848.152C708.796 848.152 709.856 848.404 710.664 849.733L795.444 966.321C796.235 967.65 797.294 967.902 798.623 967.902L839.675 967.794C841.794 967.794 842.585 966.196 841.256 964.615Z" fill="black"/>
<path d="M1082.11 796.358C1081.95 734.382 1038.96 700.314 972.225 700.493C906.803 700.655 868.229 732.532 859.088 785.008C858.819 786.857 859.627 787.917 861.477 787.899L895.112 787.827C896.711 787.809 897.752 787.019 898.022 785.439C905.348 750.185 930.723 732.37 972.297 732.281C1019.45 732.155 1044.4 753.813 1044.51 794.328L1044.54 813.401C1044.56 814.999 1043.5 816.058 1041.9 816.058L944.443 816.31C884.319 816.454 848.116 847.271 848.242 894.682C848.367 943.674 889.222 972.965 954.644 972.803C959.277 972.803 963.892 972.624 968.507 972.282C972.853 971.959 977.199 971.474 981.509 970.81C985.568 970.181 989.59 969.373 993.559 968.367C997.312 967.415 1001.03 966.284 1004.66 964.937C1008.28 963.59 1011.52 962.207 1014.82 960.537C1018.13 958.867 1021.09 957.143 1024.03 955.15C1026.98 953.156 1029.69 951.073 1032.31 948.774C1034.93 946.475 1037.36 944.015 1039.64 941.411L1039.89 941.124C1042.06 938.627 1046.19 940.154 1046.19 943.476V963.572C1046.19 965.548 1047.81 967.164 1049.79 967.164H1078.77C1080.75 967.164 1082.36 965.548 1082.36 963.572V887.229L1082.13 796.34L1082.11 796.358ZM957.732 941.285C912.442 941.393 886.977 923.452 886.905 894.054C886.834 865.715 909.299 848.708 947.442 848.6L1042.51 848.366C1044.11 848.366 1045.17 849.426 1045.17 851.006V856.843C1045.33 911.402 1014.95 941.142 957.732 941.285Z" fill="black"/>
<path d="M512.954 205.552L541.533 132.155L570.113 205.552L656.234 194.593C597.276 147.294 556.206 78.6271 544.764 0.350342H538.302C526.861 78.6271 485.79 147.294 426.833 194.593L512.937 205.552H512.954Z" fill="black"/>
<path d="M694.156 220.641L666.826 258.997L649.905 246.323L619.193 282.38L578.273 233.149L554.007 273.37L573.393 333.693L552.009 405.807L541.533 438.733L531.057 405.807L509.673 333.693L529.059 273.37L504.793 233.149L463.872 282.38L433.161 246.323L416.24 258.997L388.91 220.641C356 239.761 319.21 252.918 280.005 258.647V265.109C413.359 284.595 518.833 390.035 538.319 523.422H544.781C564.267 390.035 669.724 284.595 803.077 265.109V258.647C763.872 252.918 727.082 239.744 694.173 220.641H694.156Z" fill="black"/>
</svg>
