<svg width="1652" height="524" viewBox="0 0 1652 524" fill="none" xmlns="http://www.w3.org/2000/svg">
<path d="M852.946 448.07C853.467 449.668 854.796 450.189 856.125 450.189L892.939 450.099C894.789 450.081 895.579 449.022 895.058 447.172L757.714 72.7484C757.175 71.168 755.847 70.6472 754.536 70.6472L708.455 70.755C707.126 70.755 705.797 71.2937 705.276 72.8921L569.836 447.998C569.297 449.848 570.105 450.907 571.955 450.907L608.769 450.8C610.098 450.8 611.409 450.279 611.93 448.681L729.753 117.592C730.543 115.454 732.663 115.454 733.453 117.574L852.946 448.07Z" fill="#FA4515"/>
<path d="M1148.9 280.731C1148.74 217.695 1109.71 182.568 1044.31 182.747C1012.79 182.819 986.07 194.008 967.573 214.983C965.993 216.833 964.413 216.312 964.125 214.193L960.893 190.901C960.623 189.051 959.833 188.512 958.235 188.512L928.047 188.602C926.467 188.602 925.407 189.661 925.407 191.242L926.054 447.353C926.054 448.951 927.113 450.011 928.712 449.993L962.078 449.921C963.676 449.921 964.718 448.861 964.718 447.263L964.341 293.643C964.215 246.25 992.481 216.241 1037.5 216.133C1083.58 216.007 1110.13 241.365 1110.25 286.657L1110.65 446.904C1110.65 448.484 1111.72 449.544 1113.3 449.544L1146.67 449.454C1148.27 449.454 1149.31 448.394 1149.31 446.796L1148.9 280.731Z" fill="#FA4515"/>
<path d="M1410.21 445.612L1312.41 312.375C1311.6 311.046 1311.6 309.735 1312.66 308.658L1409.29 190.56C1410.62 188.711 1409.81 187.382 1407.69 187.382L1367.97 187.489C1366.64 187.489 1365.58 188.028 1364.79 189.088L1280.05 292.064C1279.26 293.123 1278.2 293.662 1276.87 293.662L1235.55 293.77C1233.96 293.77 1232.91 292.71 1232.89 291.13L1232.35 72.086C1232.35 70.5056 1231.27 69.446 1229.69 69.446L1196.32 69.5358C1194.73 69.5358 1193.67 70.5954 1193.68 72.1937L1194.62 446.689C1194.62 448.27 1195.7 449.329 1197.28 449.329L1230.64 449.239C1232.24 449.239 1233.28 448.18 1233.28 446.582L1232.99 331.914C1232.99 330.316 1234.05 329.256 1235.63 329.256L1276.44 329.149C1277.75 329.149 1278.81 329.4 1279.61 330.729L1364.39 447.318C1365.19 448.647 1366.24 448.898 1367.57 448.898L1408.63 448.79C1410.74 448.79 1411.54 447.192 1410.21 445.612Z" fill="#FA4515"/>
<path d="M1651.06 277.354C1650.9 215.378 1607.91 181.31 1541.18 181.49C1475.75 181.651 1437.18 213.528 1428.04 266.004C1427.77 267.854 1428.58 268.913 1430.43 268.895L1464.06 268.824C1465.66 268.806 1466.7 268.015 1466.97 266.435C1474.3 231.182 1499.67 213.367 1541.25 213.277C1588.41 213.151 1613.35 234.81 1613.46 275.325L1613.49 294.397C1613.51 295.995 1612.45 297.055 1610.85 297.055L1513.39 297.306C1453.27 297.45 1417.07 328.267 1417.19 375.679C1417.32 424.67 1458.17 453.961 1523.59 453.8C1528.23 453.8 1532.84 453.62 1537.46 453.279C1541.8 452.955 1546.15 452.471 1550.46 451.806C1554.52 451.178 1558.54 450.369 1562.51 449.364C1566.26 448.412 1569.98 447.28 1573.61 445.934C1577.24 444.587 1580.47 443.204 1583.77 441.534C1587.08 439.863 1590.04 438.139 1592.98 436.146C1595.93 434.153 1598.64 432.069 1601.26 429.771C1603.88 427.472 1606.31 425.012 1608.59 422.408L1608.84 422.12C1611.01 419.624 1615.14 421.15 1615.14 424.473V444.569C1615.14 446.544 1616.76 448.16 1618.74 448.16H1647.72C1649.7 448.16 1651.31 446.544 1651.31 444.569V368.226L1651.08 277.336L1651.06 277.354ZM1526.68 422.282C1481.39 422.39 1455.93 404.449 1455.86 375.05C1455.78 346.711 1478.25 329.704 1516.39 329.596L1611.46 329.363C1613.06 329.363 1614.12 330.422 1614.12 332.003V337.839C1614.28 392.398 1583.9 422.138 1526.68 422.282Z" fill="#FA4515"/>
<path d="M233.256 205.288L261.836 131.891L290.415 205.288L376.536 194.329C317.579 147.03 276.508 78.3633 265.067 0.0865479H258.605C247.163 78.3633 206.093 147.03 147.135 194.329L233.24 205.288H233.256Z" fill="#FA4515"/>
<path d="M414.458 220.377L387.128 258.733L370.207 246.059L339.496 282.116L298.576 232.885L274.31 273.106L293.696 333.429L272.311 405.543L261.835 438.47L251.36 405.543L229.975 333.429L249.361 273.106L225.095 232.885L184.175 282.116L153.464 246.059L136.543 258.733L109.212 220.377C76.3029 239.497 39.5129 252.654 0.307861 258.383V264.845C133.661 284.331 239.135 389.771 258.621 523.158H265.083C284.569 389.771 390.026 284.331 523.38 264.845V258.383C484.175 252.654 447.385 239.48 414.475 220.377H414.458Z" fill="#FA4515"/>
</svg>
