<svg width="525" height="524" viewBox="0 0 525 524" fill="none" xmlns="http://www.w3.org/2000/svg">
<path d="M233.902 205.288L262.481 131.891L291.06 205.288L377.182 194.329C318.224 147.03 277.154 78.3633 265.712 0.0865479H259.25C247.808 78.3633 206.738 147.03 147.781 194.329L233.885 205.288H233.902Z" fill="#FA4515"/>
<path d="M415.104 220.377L387.773 258.733L370.852 246.059L340.141 282.116L299.221 232.885L274.955 273.106L294.341 333.429L272.956 405.543L262.481 438.47L252.005 405.543L230.62 333.429L250.006 273.106L225.741 232.885L184.82 282.116L154.109 246.059L137.188 258.733L109.858 220.377C76.9482 239.497 40.1581 252.654 0.953125 258.383V264.845C134.307 284.331 239.78 389.771 259.266 523.158H265.728C285.214 389.771 390.671 284.331 524.025 264.845V258.383C484.82 252.654 448.03 239.48 415.12 220.377H415.104Z" fill="#FA4515"/>
</svg>
