<svg width="1082" height="385" viewBox="0 0 1082 385" fill="none" xmlns="http://www.w3.org/2000/svg">
<path d="M283.446 379.07C283.966 380.668 285.295 381.189 286.624 381.189L323.439 381.099C325.288 381.081 326.078 380.022 325.558 378.172L188.214 3.7484C187.675 2.16802 186.346 1.64722 185.035 1.64722L138.954 1.75497C137.625 1.75497 136.297 2.29373 135.776 3.89207L0.335295 378.998C-0.203449 380.848 0.604668 381.907 2.45436 381.907L39.2686 381.8C40.5975 381.8 41.9084 381.279 42.4292 379.681L160.253 48.5916C161.043 46.4545 163.162 46.4545 163.952 48.5736L283.446 379.07Z" fill="#FA4515"/>
<path d="M579.396 211.731C579.234 148.695 540.211 113.568 474.808 113.747C443.291 113.819 416.569 125.008 398.073 145.983C396.492 147.833 394.912 147.312 394.625 145.193L391.392 121.901C391.123 120.051 390.333 119.512 388.734 119.512L358.547 119.602C356.966 119.602 355.907 120.661 355.907 122.242L356.553 378.353C356.553 379.951 357.613 381.011 359.211 380.993L392.577 380.921C394.176 380.921 395.217 379.861 395.217 378.263L394.84 224.643C394.714 177.25 422.98 147.241 468.002 147.133C514.082 147.007 540.624 172.365 540.75 217.657L541.145 377.904C541.145 379.484 542.223 380.544 543.803 380.544L577.169 380.454C578.767 380.454 579.809 379.394 579.809 377.796L579.396 211.731Z" fill="#FA4515"/>
<path d="M840.706 376.612L742.905 243.375C742.097 242.046 742.097 240.735 743.157 239.658L839.79 121.56C841.119 119.711 840.31 118.382 838.191 118.382L798.468 118.489C797.139 118.489 796.08 119.028 795.289 120.088L710.545 223.064C709.755 224.123 708.695 224.662 707.366 224.662L666.045 224.77C664.464 224.77 663.405 223.71 663.387 222.13L662.848 3.08599C662.848 1.50562 661.77 0.446045 660.19 0.446045L626.824 0.535839C625.226 0.535839 624.166 1.59541 624.184 3.19375L625.118 377.689C625.118 379.27 626.195 380.329 627.776 380.329L661.142 380.239C662.74 380.239 663.782 379.18 663.782 377.582L663.494 262.914C663.494 261.316 664.554 260.256 666.134 260.256L706.935 260.149C708.246 260.149 709.306 260.4 710.114 261.729L794.894 378.318C795.684 379.647 796.744 379.898 798.073 379.898L839.125 379.79C841.244 379.79 842.034 378.192 840.706 376.612Z" fill="#FA4515"/>
<path d="M1081.56 208.354C1081.4 146.378 1038.41 112.31 971.674 112.49C906.253 112.651 867.679 144.528 858.538 197.004C858.269 198.854 859.077 199.913 860.926 199.895L894.562 199.824C896.16 199.806 897.202 199.015 897.471 197.435C904.798 162.182 930.173 144.367 971.746 144.277C1018.9 144.151 1043.85 165.81 1043.96 206.325L1043.99 225.397C1044.01 226.995 1042.95 228.055 1041.35 228.055L943.893 228.306C883.769 228.45 847.566 259.267 847.691 306.679C847.817 355.67 888.672 384.961 954.093 384.8C958.727 384.8 963.342 384.62 967.957 384.279C972.303 383.955 976.649 383.471 980.959 382.806C985.017 382.178 989.04 381.369 993.009 380.364C996.762 379.412 1000.48 378.28 1004.11 376.934C1007.73 375.587 1010.97 374.204 1014.27 372.534C1017.58 370.863 1020.54 369.139 1023.48 367.146C1026.43 365.153 1029.14 363.069 1031.76 360.771C1034.38 358.472 1036.81 356.012 1039.09 353.407L1039.34 353.12C1041.51 350.624 1045.64 352.15 1045.64 355.473V375.569C1045.64 377.544 1047.26 379.16 1049.24 379.16H1078.22C1080.2 379.16 1081.81 377.544 1081.81 375.569V299.226L1081.58 208.336L1081.56 208.354ZM957.182 353.282C911.892 353.39 886.427 335.449 886.355 306.05C886.283 277.711 908.749 260.704 946.892 260.596L1041.96 260.363C1043.56 260.363 1044.62 261.422 1044.62 263.003V268.839C1044.78 323.398 1014.4 353.138 957.182 353.282Z" fill="#FA4515"/>
</svg>
