<svg width="1082" height="973" viewBox="0 0 1082 973" fill="none" xmlns="http://www.w3.org/2000/svg">
<path d="M283.587 967.119C284.108 968.717 285.437 969.238 286.766 969.238L323.58 969.148C325.429 969.13 326.22 968.07 325.699 966.221L188.355 591.797C187.816 590.217 186.487 589.696 185.176 589.696L139.096 589.804C137.767 589.804 136.438 590.342 135.917 591.941L0.476531 967.047C-0.0622141 968.897 0.745903 969.956 2.59559 969.956L39.4098 969.848C40.7387 969.848 42.0497 969.328 42.5705 967.729L160.394 636.64C161.184 634.503 163.303 634.503 164.093 636.622L283.587 967.119Z" fill="#FA4515"/>
<path d="M579.538 799.779C579.376 736.744 540.353 701.617 474.949 701.796C443.433 701.868 416.711 713.056 398.214 734.032C396.634 735.882 395.053 735.361 394.766 733.242L391.534 709.949C391.264 708.1 390.474 707.561 388.876 707.561L358.688 707.651C357.108 707.651 356.048 708.71 356.048 710.291L356.695 966.402C356.695 968 357.754 969.059 359.353 969.041L392.719 968.97C394.317 968.97 395.359 967.91 395.359 966.312L394.982 812.692C394.856 765.299 423.122 735.289 468.143 735.182C514.224 735.056 540.766 760.414 540.892 805.706L541.287 965.953C541.287 967.533 542.364 968.592 543.944 968.592L577.311 968.503C578.909 968.503 579.951 967.443 579.951 965.845L579.538 799.779Z" fill="#FA4515"/>
<path d="M840.847 964.66L743.047 831.424C742.239 830.095 742.239 828.784 743.298 827.706L839.931 709.609C841.26 707.759 840.452 706.43 838.333 706.43L798.609 706.538C797.28 706.538 796.221 707.077 795.431 708.136L710.686 811.112C709.896 812.172 708.836 812.711 707.507 812.711L666.186 812.819C664.605 812.819 663.546 811.759 663.528 810.179L662.989 591.135C662.989 589.554 661.912 588.495 660.331 588.495L626.965 588.585C625.367 588.585 624.307 589.644 624.325 591.242L625.259 965.738C625.259 967.318 626.337 968.378 627.917 968.378L661.283 968.288C662.881 968.288 663.923 967.229 663.923 965.63L663.636 850.963C663.636 849.365 664.695 848.305 666.276 848.305L707.076 848.197C708.387 848.197 709.447 848.449 710.255 849.778L795.036 966.367C795.826 967.695 796.885 967.947 798.214 967.947L839.267 967.839C841.386 967.839 842.176 966.241 840.847 964.66Z" fill="#FA4515"/>
<path d="M1081.7 796.403C1081.54 734.427 1038.55 700.359 971.816 700.539C906.394 700.7 867.82 732.577 858.679 785.053C858.41 786.903 859.218 787.962 861.068 787.944L894.703 787.872C896.302 787.854 897.343 787.064 897.613 785.484C904.94 750.231 930.314 732.415 971.888 732.326C1019.05 732.2 1043.99 753.858 1044.1 794.373L1044.13 813.446C1044.15 815.044 1043.09 816.104 1041.49 816.104L944.034 816.355C883.911 816.499 847.707 847.316 847.833 894.727C847.958 943.719 888.813 973.01 954.235 972.848C958.868 972.848 963.483 972.669 968.098 972.327C972.444 972.004 976.79 971.519 981.1 970.855C985.159 970.226 989.181 969.418 993.15 968.412C996.903 967.461 1000.62 966.329 1004.25 964.982C1007.88 963.635 1011.11 962.253 1014.41 960.582C1017.72 958.912 1020.68 957.188 1023.63 955.195C1026.57 953.201 1029.28 951.118 1031.9 948.819C1034.53 946.521 1036.95 944.06 1039.23 941.456L1039.48 941.169C1041.65 938.673 1045.79 940.199 1045.79 943.522V963.617C1045.79 965.593 1047.4 967.209 1049.38 967.209H1078.36C1080.34 967.209 1081.95 965.593 1081.95 963.617V887.274L1081.72 796.385L1081.7 796.403ZM957.323 941.331C912.033 941.438 886.568 923.497 886.497 894.099C886.425 865.76 908.89 848.753 947.033 848.645L1042.1 848.412C1043.7 848.412 1044.76 849.471 1044.76 851.052V856.888C1044.92 911.447 1014.54 941.187 957.323 941.331Z" fill="#FA4515"/>
<path d="M512.545 205.597L541.125 132.2L569.704 205.597L655.825 194.638C596.868 147.339 555.797 78.6723 544.356 0.395599H537.894C526.452 78.6723 485.382 147.339 426.424 194.638L512.529 205.597H512.545Z" fill="#FA4515"/>
<path d="M693.747 220.686L666.417 259.042L649.496 246.368L618.785 282.425L577.864 233.194L553.599 273.415L572.985 333.738L551.6 405.852L541.124 438.779L530.649 405.852L509.264 333.738L528.65 273.415L504.384 233.194L463.464 282.425L432.753 246.368L415.832 259.042L388.501 220.686C355.592 239.806 318.802 252.963 279.597 258.692V265.154C412.95 284.64 518.424 390.081 537.91 523.467H544.372C563.858 390.081 669.315 284.64 802.669 265.154V258.692C763.464 252.963 726.673 239.789 693.764 220.686H693.747Z" fill="#FA4515"/>
</svg>
